<svg xmlns="http://www.w3.org/2000/svg" width="21" height="13" viewBox="0 0 21 13"><g><g><path fill="#fff" d="M19.977 1.298c.14-.474 0-.822-.675-.822H17.07c-.569 0-.83.3-.97.633 0 0-1.139 2.772-2.746 4.57-.52.519-.759.685-1.043.685-.14 0-.357-.166-.357-.64V1.298c0-.568-.159-.822-.629-.822H7.813c-.357 0-.57.265-.57.512 0 .538.805.663.888 2.18v3.291c0 .72-.129.853-.413.853-.758 0-2.601-2.783-3.693-5.968-.22-.618-.436-.868-1.01-.868H.784c-.638 0-.766.3-.766.633 0 .591.758 3.53 3.53 7.413 1.846 2.65 4.448 4.088 6.814 4.088 1.422 0 1.596-.319 1.596-.869 0-2.533-.129-2.771.584-2.771.33 0 .899.166 2.226 1.444 1.517 1.517 1.767 2.196 2.616 2.196h2.234c.637 0 .96-.319.773-.948-.424-1.324-3.295-4.046-3.424-4.228-.33-.425-.235-.614 0-.994.004-.003 2.73-3.84 3.011-5.141z"/></g></g></svg>