<svg xmlns="http://www.w3.org/2000/svg" width="61" height="37"><path fill="#fff" d="M59.62 2.71c.42-1.41 0-2.46-2.02-2.46h-6.66c-1.7 0-2.48.9-2.9 1.9 0 0-3.4 8.27-8.19 13.63-1.55 1.55-2.26 2.05-3.11 2.05-.42 0-1.07-.5-1.07-1.91V2.72c0-1.7-.47-2.46-1.87-2.46H23.32c-1.07 0-1.7.79-1.7 1.52 0 1.61 2.4 1.98 2.65 6.5v9.83c0 2.15-.39 2.55-1.23 2.55-2.27 0-7.77-8.3-11.03-17.81-.65-1.85-1.3-2.6-3-2.6H2.33c-1.9 0-2.29.9-2.29 1.9 0 1.76 2.27 10.53 10.54 22.12 5.5 7.9 13.27 12.2 20.33 12.2 4.24 0 4.77-.95 4.77-2.6 0-7.56-.39-8.27 1.74-8.27.98 0 2.68.5 6.64 4.31 4.53 4.53 5.27 6.56 7.8 6.56h6.67c1.9 0 2.87-.95 2.31-2.83-1.27-3.95-9.83-12.08-10.22-12.62-.98-1.27-.7-1.83 0-2.96.01-.02 8.15-11.47 8.99-15.35z"/></svg>