<svg xmlns="http://www.w3.org/2000/svg" width="17" height="21" viewBox="0 0 17 21"><g><g><path fill="#fff" d="M14.233 12.038c0-3.126-1.397-5.66-1.397-5.66-1.398-1.048-2.728-1.019-2.728-1.019l-.136.155c1.65.505 2.417 1.233 2.417 1.233-2.306-1.264-5.015-1.264-7.251-.281-.36.165-.573.281-.573.281s.806-.767 2.553-1.271l-.097-.117s-1.33-.03-2.728 1.02c0 0-1.398 2.533-1.398 5.659 0 0 .816 1.407 2.961 1.475 0 0 .36-.437.65-.806-1.232-.368-1.698-1.145-1.698-1.145.142.1.378.23.398.243 1.638.917 3.966 1.218 6.057.34.34-.127.718-.311 1.116-.573 0 0-.485.796-1.757 1.155.292.369.641.786.641.786 2.145-.068 2.97-1.475 2.97-1.475zM17 2.835V20.25c-2.446-2.161-1.663-1.446-4.504-4.087l.514 1.796H2.002a1.995 1.995 0 0 1-1.99-2V2.835c0-1.107.893-2 1.99-2H15.01c1.097 0 1.99.893 1.99 2zm-9.26 7.222c0 .592-.438 1.078-.99 1.078-.545 0-.991-.486-.991-1.078 0-.592.437-1.077.99-1.077.553 0 1 .485.99 1.077zm3.542 0c0 .592-.436 1.078-.99 1.078-.543 0-.99-.486-.99-1.078 0-.592.437-1.077.99-1.077.554 0 .99.485.99 1.077z"/></g></g></svg>