<svg xmlns="http://www.w3.org/2000/svg" width="52" height="59" viewBox="0 0 52 59"><g><g><path fill="#fff" d="M43.216 33.731c0-9.327-4.172-16.888-4.172-16.888-4.171-3.128-8.14-3.041-8.14-3.041l-.405.463c4.924 1.506 7.213 3.679 7.213 3.679-6.881-3.771-14.964-3.772-21.64-.84-1.07.492-1.708.84-1.708.84s2.404-2.288 7.618-3.795l-.29-.347s-3.968-.087-8.14 3.041c0 0-4.17 7.56-4.17 16.888 0 0 2.433 4.2 8.834 4.403 0 0 1.072-1.303 1.941-2.404-3.679-1.1-5.069-3.418-5.069-3.418.426.298 1.129.685 1.188.724 4.89 2.738 11.834 3.635 18.076 1.014a16.576 16.576 0 0 0 3.33-1.71s-1.448 2.376-5.242 3.448c.869 1.1 1.912 2.346 1.912 2.346 6.401-.202 8.864-4.403 8.864-4.403zm8.255-27.46v51.967c-7.297-6.45-4.963-4.314-13.44-12.195l1.535 5.359H6.716c-3.273 0-5.938-2.665-5.938-5.968V6.27C.778 2.968 3.443.303 6.716.303h38.817c3.273 0 5.938 2.665 5.938 5.967zM23.836 27.821c0 1.767-1.303 3.215-2.954 3.215-1.623 0-2.955-1.448-2.955-3.215s1.303-3.215 2.955-3.215c1.65 0 2.983 1.448 2.954 3.215zm10.573 0c0 1.767-1.303 3.215-2.954 3.215-1.622 0-2.955-1.448-2.955-3.215s1.304-3.215 2.955-3.215c1.65 0 2.954 1.448 2.954 3.215z"/></g></g></svg>